TITLE ""
FILE "1Q_t_0478-0487.mp3" MP3
  TRACK 01 AUDIO
    TITLE "1Q_t_0478-0487_01"
    INDEX 01 00:00:00
  TRACK 02 AUDIO
    TITLE "1Q_t_0478-0487_02"
    INDEX 01 00:01:22
  TRACK 03 AUDIO
    TITLE "1Q_t_0478-0487_03"
    INDEX 01 00:01:35
  TRACK 04 AUDIO
    TITLE "1Q_t_0478-0487_04"
    INDEX 01 00:03:60
  TRACK 05 AUDIO
    TITLE "1Q_t_0478-0487_05"
    INDEX 01 00:03:75
  TRACK 06 AUDIO
    TITLE "1Q_t_0478-0487_06"
    INDEX 01 00:08:04
  TRACK 07 AUDIO
    TITLE "1Q_t_0478-0487_07"
    INDEX 01 00:08:57
  TRACK 08 AUDIO
    TITLE "1Q_t_0478-0487_08"
    INDEX 01 00:09:72
  TRACK 09 AUDIO
    TITLE "1Q_t_0478-0487_09"
    INDEX 01 00:10:13
  TRACK 10 AUDIO
    TITLE "1Q_t_0478-0487_10"
    INDEX 01 00:12:17
  TRACK 11 AUDIO
    TITLE "1Q_t_0478-0487_11"
    INDEX 01 00:12:35
  TRACK 12 AUDIO
    TITLE "1Q_t_0478-0487_12"
    INDEX 01 00:18:02
  TRACK 13 AUDIO
    TITLE "1Q_t_0478-0487_13"
    INDEX 01 00:18:53
  TRACK 14 AUDIO
    TITLE "1Q_t_0478-0487_14"
    INDEX 01 00:19:70
  TRACK 15 AUDIO
    TITLE "1Q_t_0478-0487_15"
    INDEX 01 00:20:11
  TRACK 16 AUDIO
    TITLE "1Q_t_0478-0487_16"
    INDEX 01 00:21:44
  TRACK 17 AUDIO
    TITLE "1Q_t_0478-0487_17"
    INDEX 01 00:21:58
  TRACK 18 AUDIO
    TITLE "1Q_t_0478-0487_18"
    INDEX 01 00:26:66
  TRACK 19 AUDIO
    TITLE "1Q_t_0478-0487_19"
    INDEX 01 00:27:44
  TRACK 20 AUDIO
    TITLE "1Q_t_0478-0487_20"
    INDEX 01 00:28:52
  TRACK 21 AUDIO
    TITLE "1Q_t_0478-0487_21"
    INDEX 01 00:28:67
  TRACK 22 AUDIO
    TITLE "1Q_t_0478-0487_22"
    INDEX 01 00:31:23
  TRACK 23 AUDIO
    TITLE "1Q_t_0478-0487_23"
    INDEX 01 00:31:36
  TRACK 24 AUDIO
    TITLE "1Q_t_0478-0487_24"
    INDEX 01 00:37:62
  TRACK 25 AUDIO
    TITLE "1Q_t_0478-0487_25"
    INDEX 01 00:38:42
  TRACK 26 AUDIO
    TITLE "1Q_t_0478-0487_26"
    INDEX 01 00:39:46
  TRACK 27 AUDIO
    TITLE "1Q_t_0478-0487_27"
    INDEX 01 00:39:63
  TRACK 28 AUDIO
    TITLE "1Q_t_0478-0487_28"
    INDEX 01 00:42:05
  TRACK 29 AUDIO
    TITLE "1Q_t_0478-0487_29"
    INDEX 01 00:42:19
  TRACK 30 AUDIO
    TITLE "1Q_t_0478-0487_30"
    INDEX 01 00:49:24
  TRACK 31 AUDIO
    TITLE "1Q_t_0478-0487_31"
    INDEX 01 00:50:02
  TRACK 32 AUDIO
    TITLE "1Q_t_0478-0487_32"
    INDEX 01 00:51:04
  TRACK 33 AUDIO
    TITLE "1Q_t_0478-0487_33"
    INDEX 01 00:51:19
  TRACK 34 AUDIO
    TITLE "1Q_t_0478-0487_34"
    INDEX 01 00:53:40
  TRACK 35 AUDIO
    TITLE "1Q_t_0478-0487_35"
    INDEX 01 00:53:54
  TRACK 36 AUDIO
    TITLE "1Q_t_0478-0487_36"
    INDEX 01 01:00:40
  TRACK 37 AUDIO
    TITLE "1Q_t_0478-0487_37"
    INDEX 01 01:01:18
  TRACK 38 AUDIO
    TITLE "1Q_t_0478-0487_38"
    INDEX 01 01:02:39
  TRACK 39 AUDIO
    TITLE "1Q_t_0478-0487_39"
    INDEX 01 01:02:54
  TRACK 40 AUDIO
    TITLE "1Q_t_0478-0487_40"
    INDEX 01 01:04:67
  TRACK 41 AUDIO
    TITLE "1Q_t_0478-0487_41"
    INDEX 01 01:05:08
  TRACK 42 AUDIO
    TITLE "1Q_t_0478-0487_42"
    INDEX 01 01:11:59
  TRACK 43 AUDIO
    TITLE "1Q_t_0478-0487_43"
    INDEX 01 01:12:37
  TRACK 44 AUDIO
    TITLE "1Q_t_0478-0487_44"
    INDEX 01 01:13:52
  TRACK 45 AUDIO
    TITLE "1Q_t_0478-0487_45"
    INDEX 01 01:13:72
  TRACK 46 AUDIO
    TITLE "1Q_t_0478-0487_46"
    INDEX 01 01:17:66
  TRACK 47 AUDIO
    TITLE "1Q_t_0478-0487_47"
    INDEX 01 01:18:06
  TRACK 48 AUDIO
    TITLE "1Q_t_0478-0487_48"
    INDEX 01 01:23:25
  TRACK 49 AUDIO
    TITLE "1Q_t_0478-0487_49"
    INDEX 01 01:24:01
  TRACK 50 AUDIO
    TITLE "1Q_t_0478-0487_50"
    INDEX 01 01:25:34
  TRACK 51 AUDIO
    TITLE "1Q_t_0478-0487_51"
    INDEX 01 01:25:50
  TRACK 52 AUDIO
    TITLE "1Q_t_0478-0487_52"
    INDEX 01 01:29:34
  TRACK 53 AUDIO
    TITLE "1Q_t_0478-0487_53"
    INDEX 01 01:29:49
  TRACK 54 AUDIO
    TITLE "1Q_t_0478-0487_54"
    INDEX 01 01:35:62
  TRACK 55 AUDIO
    TITLE "1Q_t_0478-0487_55"
    INDEX 01 01:36:40
  TRACK 56 AUDIO
    TITLE "1Q_t_0478-0487_56"
    INDEX 01 01:37:67
  TRACK 57 AUDIO
    TITLE "1Q_t_0478-0487_57"
    INDEX 01 01:38:07
  TRACK 58 AUDIO
    TITLE "1Q_t_0478-0487_58"
    INDEX 01 01:41:45
  TRACK 59 AUDIO
    TITLE "1Q_t_0478-0487_59"
    INDEX 01 01:41:58
  TRACK 60 AUDIO
    TITLE "1Q_t_0478-0487_60"
    INDEX 01 01:48:17
